<svg id="Layer_1" data-name="Layer 1" xmlns="http://www.w3.org/2000/svg" viewBox="0 0 347 271"><defs><style>.cls-1{fill:#fff;stroke:#313545;stroke-miterlimit:10;stroke-width:8px;}.cls-2{fill:#313545;}.cls-3{fill:#6acdfd;}</style></defs><title>pharmabot</title><rect class="cls-1" x="27" y="6" width="293" height="261" rx="118.85"/><rect class="cls-2" x="54.83" y="55" width="237.71" height="178" rx="76.43"/><path class="cls-3" d="M618.57,408H585V374.43a6.43,6.43,0,0,0-6.43-6.43H557.43a6.43,6.43,0,0,0-6.43,6.43V408H517.43a6.43,6.43,0,0,0-6.43,6.43v21.14a6.43,6.43,0,0,0,6.43,6.43H551v33.57a6.43,6.43,0,0,0,6.43,6.43h21.14a6.43,6.43,0,0,0,6.43-6.43V442h33.57a6.43,6.43,0,0,0,6.43-6.43V414.43A6.43,6.43,0,0,0,618.57,408Z" transform="translate(-395 -278)"/><path class="cls-2" d="M734.3,278a7.73,7.73,0,0,0-7.3,7.85V386a0,0,0,0,1,0,0h-9.75a6.21,6.21,0,0,0-6.21,6.21v57.58a6.21,6.21,0,0,0,6.21,6.21H720c3.43,0,22-4,22-31V285.5A7.5,7.5,0,0,0,734.3,278Z" transform="translate(-395 -278)"/><path class="cls-2" d="M402.7,278a7.73,7.73,0,0,1,7.3,7.85V386a0,0,0,0,0,0,0h9.75a6.21,6.21,0,0,1,6.21,6.21v57.58a6.21,6.21,0,0,1-6.21,6.21H417c-3.43,0-22-4-22-31V285.5A7.5,7.5,0,0,1,402.7,278Z" transform="translate(-395 -278)"/></svg>