<svg xmlns="http://www.w3.org/2000/svg" xmlns:xlink="http://www.w3.org/1999/xlink" viewBox="0 0 499.58 499.58"><defs><style>.cls-1{fill:url(#radial-gradient);}.cls-2{fill:#f3701f;}.cls-3{fill:#fff;}</style><radialGradient id="radial-gradient" cx="245.48" cy="249.79" fx="-151.7919414928524" fy="44.06559799913242" r="447.38" gradientUnits="userSpaceOnUse"><stop offset="0.52" stop-color="#333"/><stop offset="0.63" stop-color="#303030"/><stop offset="0.74" stop-color="#252525"/><stop offset="0.83" stop-color="#131313"/><stop offset="0.91"/></radialGradient></defs><title>Asset 1</title><g id="Layer_2" data-name="Layer 2"><g id="Layer_3" data-name="Layer 3"><circle class="cls-1" cx="249.79" cy="249.79" r="249.79"/><path class="cls-2" d="M164.63,262.79c45.59-94.05,71.88-114,100.52-114,65.54,0,107.5.95,173,0h0c-54.14,74.1-57,222.27-168.13,222.27H139c34.19-45.59,70.19-175.4,119.69-205.18-59.85,0-111.14,205.18-142.49,205.18H101.93c7-7.71,12.81-11.51,22-26.57,14.2-23.17,32.12-67.47,32.12-67.47s-68.34-96.72-76.9-107.45a143.84,143.84,0,0,0-17.8-18.9C90.3,150.69,95.36,173.78,164.63,262.79Z"/><path class="cls-3" d="M248.81,256.36a24.14,24.14,0,0,0,2.13,5.05l-2.57,3.23a2.67,2.67,0,0,0,.2,3.52l4.42,4.42a2.65,2.65,0,0,0,3.52.19l3.21-2.54a23.13,23.13,0,0,0,5.25,2.22l.48,4.13a2.64,2.64,0,0,0,2.62,2.35h6.25a2.66,2.66,0,0,0,2.63-2.35l.46-4a24.07,24.07,0,0,0,5.62-2.27l3.11,2.46a2.67,2.67,0,0,0,3.52-.2l4.42-4.42a2.65,2.65,0,0,0,.19-3.52l-2.41-3.07a23.05,23.05,0,0,0,2.31-5.52l3.73-.43a2.65,2.65,0,0,0,2.34-2.63v-6.25a2.65,2.65,0,0,0-2.34-2.63l-3.68-.42a22.84,22.84,0,0,0-2.22-5.47l2.26-2.86a2.64,2.64,0,0,0-.19-3.51l-4.41-4.41a2.65,2.65,0,0,0-3.52-.2l-2.77,2.2a23.43,23.43,0,0,0-5.75-2.41l-.42-3.59a2.64,2.64,0,0,0-2.63-2.34h-6.24a2.65,2.65,0,0,0-2.63,2.34l-.42,3.59a23.33,23.33,0,0,0-5.89,2.49l-2.88-2.28a2.66,2.66,0,0,0-3.52.2l-4.42,4.42a2.65,2.65,0,0,0-.2,3.51l2.41,3.05A23.26,23.26,0,0,0,248.6,244l-3.85.44a2.63,2.63,0,0,0-2.34,2.62v6.25a2.65,2.65,0,0,0,2.34,2.63Zm22.65-16.9a10.33,10.33,0,1,1-10.34,10.33A10.34,10.34,0,0,1,271.46,239.46Z"/><path class="cls-3" d="M333.24,257.9l-3.3-2.78a2.61,2.61,0,0,0-3.48.09l-1.82,1.71a18.42,18.42,0,0,0-4.86-1.57l-.51-2.52a2.63,2.63,0,0,0-2.78-2.09l-4.31.37a2.61,2.61,0,0,0-2.39,2.52l-.09,2.55a19.16,19.16,0,0,0-4.63,2.44l-2.18-1.44a2.61,2.61,0,0,0-3.44.49L296.66,261a2.59,2.59,0,0,0,.1,3.47l1.9,2a19.48,19.48,0,0,0-1.4,4.65l-2.72.56a2.63,2.63,0,0,0-2.1,2.78l.37,4.3a2.61,2.61,0,0,0,2.52,2.4l2.94.09a19.12,19.12,0,0,0,2.09,4l-1.65,2.48a2.62,2.62,0,0,0,.5,3.45L302.5,294a2.61,2.61,0,0,0,3.48-.09l2.15-2a18.82,18.82,0,0,0,4.43,1.44l.6,2.95a2.63,2.63,0,0,0,2.78,2.1l4.31-.37a2.61,2.61,0,0,0,2.39-2.52l.1-2.89a19.55,19.55,0,0,0,4.42-2.24l2.38,1.57a2.62,2.62,0,0,0,3.44-.49l2.79-3.3a2.6,2.6,0,0,0-.1-3.48l-1.91-2a19,19,0,0,0,1.51-4.67l2.61-.53a2.63,2.63,0,0,0,2.1-2.78l-.37-4.31a2.61,2.61,0,0,0-2.52-2.39l-2.63-.09a19,19,0,0,0-2.19-4.31l1.44-2.16A2.61,2.61,0,0,0,333.24,257.9ZM317,282.77a8.45,8.45,0,1,1,7.72-9.14A8.46,8.46,0,0,1,317,282.77Z"/><path class="cls-3" d="M263.87,294.35a2.61,2.61,0,0,0-2.35,2.57l0,2.65a2.61,2.61,0,0,0,2.28,2.63l2,.25a14.83,14.83,0,0,0,1.38,3.38l-1.26,1.55a2.63,2.63,0,0,0,.16,3.48l1.85,1.89a2.62,2.62,0,0,0,3.48.24l1.56-1.2a15.5,15.5,0,0,0,3.47,1.52l.21,2a2.63,2.63,0,0,0,2.58,2.34l2.65,0a2.59,2.59,0,0,0,2.62-2.28l.25-1.91a15.51,15.51,0,0,0,3.76-1.46l1.47,1.18a2.59,2.59,0,0,0,3.47-.16l1.9-1.85a2.61,2.61,0,0,0,.24-3.47l-1.12-1.46a15.26,15.26,0,0,0,1.59-3.66l1.74-.18a2.61,2.61,0,0,0,2.34-2.57l0-2.65a2.6,2.6,0,0,0-2.28-2.63l-1.69-.22a15.84,15.84,0,0,0-1.44-3.66l1.06-1.3a2.6,2.6,0,0,0-.16-3.48L293.73,284a2.61,2.61,0,0,0-3.47-.24l-1.27,1a15.16,15.16,0,0,0-3.81-1.65l-.17-1.65a2.61,2.61,0,0,0-2.57-2.34l-2.65,0a2.61,2.61,0,0,0-2.63,2.28L277,283a16.16,16.16,0,0,0-3.95,1.61l-1.3-1.06a2.61,2.61,0,0,0-3.48.15l-1.9,1.87a2.61,2.61,0,0,0-.25,3.47l1.12,1.45a15.38,15.38,0,0,0-1.49,3.66Zm17.09-3a6.89,6.89,0,1,1-7,6.81A6.9,6.9,0,0,1,281,291.35Z"/></g></g></svg>